<?xml version="1.0" standalone="no"?>
<!DOCTYPE svg PUBLIC "-//W3C//DTD SVG 20010904//EN"
 "http://www.w3.org/TR/2001/REC-SVG-20010904/DTD/svg10.dtd">
<svg version="1.0" xmlns="http://www.w3.org/2000/svg"
 width="1494.000000pt" height="1494.000000pt" viewBox="0 0 1494.000000 1494.000000"
 preserveAspectRatio="xMidYMid meet">
<metadata>
Created by potrace 1.11, written by Peter Selinger 2001-2013
</metadata>
<g transform="translate(0.000000,1494.000000) scale(0.100000,-0.100000)"
fill="#000000" stroke="none">
<path d="M928 11095 c-2 -1 -48 -6 -103 -9 -55 -4 -113 -9 -130 -11 -16 -3
-46 -7 -65 -10 -259 -33 -410 -134 -412 -275 0 -104 74 -167 297 -250 55 -21
114 -44 130 -51 17 -7 32 -13 35 -13 3 -1 26 -14 51 -29 46 -27 92 -94 102
-147 3 -14 8 -36 11 -50 25 -108 31 -275 30 -965 -1 -618 -7 -1163 -19 -1620
-11 -409 -14 -510 -15 -510 -1 0 -3 -58 -5 -130 -2 -71 -7 -188 -10 -260 -17
-383 -20 -436 -41 -760 -3 -55 -8 -129 -9 -165 -2 -36 -6 -94 -10 -130 -3 -36
-8 -90 -10 -120 -4 -56 -12 -156 -21 -265 -2 -33 -6 -76 -9 -95 -2 -19 -6 -64
-10 -100 -3 -36 -8 -85 -11 -110 -2 -25 -7 -65 -9 -89 -8 -82 -18 -144 -30
-196 -20 -86 -29 -115 -37 -115 -4 0 -8 -6 -8 -13 0 -18 -58 -78 -95 -98 -16
-9 -93 -40 -170 -69 -145 -54 -205 -83 -265 -128 -73 -55 -89 -83 -86 -148 5
-91 56 -154 169 -208 61 -29 100 -41 207 -63 8 -1 35 -5 60 -8 25 -3 61 -8 80
-10 209 -27 910 -26 1041 1 13 2 42 6 64 9 116 12 238 48 310 90 83 48 134
123 135 197 0 58 -19 91 -84 145 -39 33 -152 81 -322 139 -80 27 -160 71 -187
103 -26 31 -61 113 -70 166 -3 17 -8 40 -11 53 -3 12 -9 66 -13 120 -9 107 -8
2344 1 2647 3 105 8 291 11 415 3 124 8 306 10 405 2 99 7 288 10 420 3 132 7
330 10 440 3 110 7 294 10 409 2 115 6 210 8 213 5 4 1 15 97 -242 39 -104 76
-199 81 -210 5 -11 27 -67 48 -125 22 -58 46 -121 55 -141 8 -20 12 -39 9 -43
-4 -3 -1 -6 5 -6 7 0 12 -6 12 -14 0 -11 22 -73 51 -141 4 -11 20 -51 34 -90
15 -38 33 -86 40 -105 8 -19 37 -96 65 -170 28 -74 57 -151 65 -170 7 -19 37
-98 66 -175 28 -77 57 -153 64 -170 29 -69 115 -303 115 -313 0 -7 5 -12 11
-12 5 0 8 -4 5 -8 -3 -5 2 -21 10 -36 7 -16 14 -34 14 -41 0 -6 6 -25 14 -41
13 -26 83 -204 90 -229 4 -15 17 -47 26 -70 19 -43 70 -180 70 -188 0 -4 8
-26 19 -50 10 -23 29 -69 41 -102 12 -33 25 -69 30 -80 4 -11 15 -40 25 -65 9
-25 22 -56 28 -70 6 -14 11 -28 11 -32 1 -3 4 -10 9 -14 4 -4 7 -13 7 -19 0
-7 7 -30 16 -51 9 -22 16 -41 16 -44 0 -3 5 -14 11 -25 6 -11 12 -22 12 -25 1
-3 8 -21 17 -41 9 -20 19 -47 23 -60 4 -13 32 -85 62 -159 30 -74 56 -139 57
-145 2 -5 8 -21 14 -35 5 -14 35 -86 65 -160 30 -74 66 -161 80 -193 15 -31
27 -61 27 -65 1 -4 8 -23 17 -42 8 -19 29 -69 46 -110 17 -41 32 -77 33 -80 1
-7 20 -52 42 -103 11 -23 32 -71 47 -107 34 -81 63 -144 87 -192 11 -21 19
-40 19 -43 0 -2 16 -40 35 -82 20 -43 47 -103 61 -133 36 -79 159 -323 204
-405 21 -38 42 -77 46 -85 4 -8 14 -26 23 -40 9 -14 30 -45 46 -70 16 -25 31
-47 34 -50 3 -3 16 -21 29 -40 13 -19 42 -50 65 -69 36 -29 46 -33 86 -28 24
3 46 10 48 16 2 6 10 11 17 11 21 0 120 102 162 167 9 15 20 30 23 33 12 12
110 205 150 295 12 28 29 66 38 85 9 19 17 40 18 45 2 10 133 324 156 375 6
14 12 27 12 30 1 6 23 60 46 115 9 22 30 72 45 110 16 39 32 74 37 80 4 5 8
15 8 22 0 7 9 32 19 56 40 86 101 240 101 253 0 8 4 14 8 14 5 0 9 6 9 13 1 6
40 107 87 222 48 116 88 215 90 220 1 6 10 27 19 49 9 21 17 41 17 43 0 3 7
19 15 36 8 18 28 68 45 112 17 44 37 94 45 112 8 17 15 33 15 36 0 3 5 18 11
34 6 15 10 29 9 31 0 1 6 15 14 30 8 15 51 122 96 237 45 116 86 219 91 230
12 27 106 266 354 895 42 107 82 206 87 220 6 14 12 30 14 35 1 6 8 24 15 40
7 17 13 32 13 35 2 7 26 68 42 105 7 17 34 84 60 150 25 66 51 131 57 145 6
14 11 27 11 30 3 11 139 356 145 365 3 6 6 15 7 20 1 6 20 55 42 110 23 55 74
186 115 290 41 105 94 240 118 300 24 61 44 115 45 122 1 6 7 19 13 30 13 23
12 41 16 -242 2 -126 6 -392 9 -590 11 -658 16 -1027 20 -1327 2 -163 7 -301
10 -307 4 -5 3 -12 -1 -14 -5 -3 -6 -45 -3 -94 8 -125 5 -2432 -3 -2468 -4
-16 -9 -50 -11 -75 -16 -177 -64 -298 -144 -362 -25 -20 -78 -48 -121 -63
-223 -77 -348 -149 -379 -220 -35 -77 -20 -147 43 -211 41 -41 125 -89 170
-99 11 -2 43 -10 70 -19 48 -14 97 -24 160 -31 17 -2 48 -6 70 -9 188 -27 919
-28 1073 -2 15 3 48 7 74 10 187 22 419 87 469 132 8 8 19 14 22 14 14 0 74
67 88 100 34 75 18 149 -45 211 -27 26 -154 96 -189 103 -7 2 -19 6 -27 9 -8
3 -49 15 -90 27 -148 43 -245 107 -274 181 -20 50 -37 151 -51 314 -2 28 -7
70 -9 95 -3 25 -8 90 -11 145 -3 55 -8 127 -10 160 -2 33 -7 112 -10 175 -3
63 -7 153 -10 200 -2 47 -7 159 -10 250 -3 91 -8 224 -10 295 -3 72 -8 227
-10 345 -3 118 -7 310 -10 425 -3 116 -7 506 -10 868 -2 362 -7 662 -10 667
-3 5 -1 11 4 14 4 3 6 20 4 38 -3 18 -5 38 -4 43 5 109 5 135 -1 135 -3 0 -4
8 -2 18 2 9 6 262 9 562 3 300 7 568 10 595 2 28 6 79 9 115 3 36 8 74 10 85
12 58 31 122 43 145 7 14 13 30 13 36 0 12 44 54 80 76 14 8 79 35 145 60 66
25 129 49 140 54 11 4 22 8 25 8 24 5 111 55 134 78 17 15 33 28 37 28 4 0 15
23 24 50 27 81 9 149 -56 212 -26 25 -82 60 -94 57 -4 0 -16 6 -29 14 -12 9
-38 18 -58 21 -19 3 -41 8 -49 10 -21 8 -69 16 -124 21 -27 3 -60 7 -72 10
-79 18 -720 27 -840 12 -256 -32 -392 -118 -486 -310 -26 -52 -47 -98 -47
-101 0 -4 -9 -25 -20 -49 -10 -23 -31 -76 -46 -117 -15 -41 -34 -93 -44 -115
-10 -22 -30 -76 -45 -120 -15 -44 -30 -89 -35 -100 -28 -71 -56 -147 -115
-315 -20 -58 -40 -112 -43 -120 -3 -8 -4 -18 -4 -22 1 -5 -2 -8 -6 -8 -5 0 -9
-6 -9 -12 -1 -12 -64 -190 -82 -233 -5 -11 -15 -36 -21 -55 -7 -19 -19 -48
-25 -65 -7 -16 -27 -68 -45 -115 -18 -47 -37 -96 -43 -110 -5 -14 -11 -31 -13
-38 -1 -7 -18 -52 -37 -100 -20 -48 -42 -106 -49 -129 -7 -24 -16 -43 -20 -43
-5 0 -8 -6 -8 -14 0 -7 -9 -35 -19 -62 -11 -27 -45 -114 -77 -194 -31 -80 -79
-201 -107 -270 -27 -69 -50 -131 -50 -137 0 -7 -4 -13 -9 -13 -4 0 -8 -6 -8
-14 0 -8 -16 -51 -35 -96 -19 -45 -35 -86 -35 -91 0 -4 -11 -32 -24 -61 -13
-29 -43 -100 -66 -158 -23 -58 -52 -130 -65 -160 -13 -30 -49 -118 -80 -195
-32 -77 -62 -151 -68 -165 -5 -14 -10 -28 -9 -32 1 -5 -3 -8 -8 -8 -6 0 -10
-7 -10 -15 0 -8 -4 -23 -9 -33 -17 -35 -41 -91 -129 -297 -50 -115 -101 -235
-115 -265 -14 -30 -45 -100 -70 -155 -86 -191 -100 -221 -173 -371 -144 -297
-235 -444 -274 -444 -9 0 -26 8 -37 18 -22 20 -116 169 -119 190 -2 7 -9 21
-16 30 -17 21 -52 94 -50 105 1 4 -3 7 -8 7 -6 0 -10 4 -10 10 0 5 -19 49 -41
97 -69 146 -84 181 -159 358 -40 94 -92 217 -117 275 -25 58 -84 200 -130 315
-46 116 -88 219 -93 230 -12 25 -110 274 -184 470 -32 83 -62 159 -66 170 -22
54 -75 191 -75 195 -1 3 -9 22 -18 44 -9 21 -17 41 -17 44 0 7 -83 232 -109
295 -6 12 -13 33 -16 47 -4 14 -13 39 -20 55 -7 17 -23 57 -35 90 -13 33 -26
69 -30 80 -8 19 -30 80 -69 188 -11 28 -35 95 -54 147 -64 175 -118 325 -122
340 -2 8 -4 16 -5 18 -2 1 -3 5 -5 10 -1 4 -5 16 -9 27 -4 11 -12 34 -18 50
-5 17 -14 39 -18 50 -12 28 -91 248 -94 260 -1 6 -14 44 -29 85 -44 123 -107
304 -112 320 -2 8 -16 49 -30 90 -15 41 -40 113 -57 160 -92 259 -189 476
-247 549 -29 36 -86 73 -121 78 -8 1 -33 6 -55 12 -22 5 -60 12 -85 16 -43 7
-675 16 -682 10z"/>
<path d="M9507 11093 c-2 -2 -41 -5 -86 -8 -105 -6 -265 -25 -326 -39 -42 -9
-120 -28 -133 -32 -7 -2 -14 -4 -17 -4 -3 0 -22 -9 -42 -20 -21 -11 -43 -20
-50 -20 -7 0 -13 -4 -13 -10 0 -5 -6 -10 -13 -10 -23 0 -94 -84 -112 -132 -18
-50 -15 -118 7 -147 18 -23 72 -71 80 -71 4 0 13 -6 21 -14 11 -11 275 -116
292 -116 14 0 153 -70 172 -87 22 -19 60 -117 67 -175 3 -18 7 -49 10 -68 3
-19 8 -57 11 -85 3 -27 7 -68 10 -90 2 -22 7 -80 10 -130 2 -49 7 -126 10
-170 33 -519 40 -3451 10 -4170 -10 -235 -14 -320 -15 -320 0 0 -3 -31 -5 -70
-4 -71 -14 -179 -20 -225 -2 -14 -6 -47 -10 -75 -19 -149 -39 -216 -74 -252
-26 -26 -157 -92 -221 -111 -273 -81 -382 -168 -365 -293 15 -109 141 -204
323 -244 12 -3 30 -7 40 -9 173 -38 386 -51 792 -50 402 1 511 7 725 45 206
36 343 112 387 216 17 40 16 104 -1 133 -40 68 -148 134 -301 184 -59 19 -125
44 -177 67 -24 10 -46 19 -49 19 -10 0 -53 52 -71 84 -16 31 -55 156 -48 156
3 0 1 10 -4 23 -7 19 -16 88 -27 212 -15 181 -27 2031 -14 2130 5 33 35 80 53
81 33 1 164 -127 457 -446 110 -120 92 -100 200 -220 47 -52 92 -101 100 -110
8 -9 42 -47 75 -84 33 -38 65 -74 71 -80 17 -18 104 -116 179 -201 39 -44 87
-96 107 -117 20 -21 34 -38 31 -38 -3 0 3 -8 13 -17 16 -15 228 -251 384 -428
19 -22 50 -55 68 -73 17 -19 32 -35 32 -37 0 -2 15 -19 33 -37 17 -19 61 -67
97 -108 36 -40 76 -85 90 -101 14 -15 53 -58 86 -96 34 -37 84 -92 110 -122
27 -30 57 -63 67 -75 39 -46 324 -345 476 -501 262 -268 414 -385 541 -417 59
-15 159 -30 250 -39 69 -6 487 -4 555 4 148 15 166 18 232 33 266 60 394 184
338 327 -21 54 -72 99 -160 142 -65 31 -210 80 -272 91 -14 3 -34 9 -45 15
-10 5 -18 8 -18 5 0 -3 -12 -1 -27 4 -16 4 -74 23 -131 40 -60 19 -135 52
-180 79 -72 43 -202 137 -247 178 -11 10 -54 47 -95 83 -87 75 -498 485 -615
613 -115 126 -292 317 -418 451 -21 23 -74 79 -117 126 -43 47 -102 110 -132
141 -29 31 -98 105 -153 164 -55 58 -129 137 -165 175 -56 59 -110 117 -281
301 -42 45 -245 262 -289 309 -38 41 -112 121 -205 226 -33 37 -73 81 -88 98
-53 59 -148 171 -172 204 -5 7 -18 22 -27 32 -9 11 -26 36 -37 57 -17 34 -17
43 -7 75 14 39 58 119 79 140 7 7 28 33 47 58 19 24 46 56 60 71 14 15 71 76
126 136 56 59 118 126 138 148 32 35 386 399 646 665 47 48 109 112 138 143
29 32 55 57 58 57 3 0 16 12 28 28 28 32 362 375 556 571 191 192 291 280 423
374 45 32 89 63 98 70 15 12 34 23 109 63 19 10 37 21 40 24 6 7 171 82 185
84 5 1 15 4 20 8 8 5 106 35 140 43 6 1 17 5 25 8 8 3 42 13 75 22 92 25 182
74 220 118 91 107 30 251 -138 327 -60 27 -151 56 -153 49 0 -2 -8 2 -17 10
-10 7 -17 11 -17 9 0 -3 -21 -1 -47 4 -95 19 -143 26 -243 35 -97 9 -612 8
-710 -1 -47 -5 -103 -10 -125 -11 -22 -2 -40 -4 -40 -5 0 -1 -12 -3 -26 -5
-65 -9 -108 -17 -164 -31 -33 -9 -64 -17 -70 -19 -43 -10 -155 -58 -155 -66 0
-5 -6 -9 -14 -9 -22 0 -95 -75 -111 -114 -25 -60 -15 -129 28 -188 22 -30 105
-91 177 -129 25 -13 50 -28 56 -34 72 -63 94 -95 94 -139 0 -26 -77 -148 -129
-204 -17 -18 -31 -34 -31 -36 0 -1 -21 -25 -46 -52 -25 -27 -64 -71 -87 -98
-23 -26 -55 -63 -72 -80 -16 -18 -70 -77 -120 -131 -49 -53 -106 -114 -125
-134 -19 -20 -69 -74 -110 -120 -41 -45 -93 -102 -115 -125 -22 -24 -76 -82
-120 -130 -44 -48 -93 -102 -110 -120 -97 -105 -245 -265 -266 -287 -42 -46
-183 -200 -214 -234 -16 -17 -68 -73 -115 -124 -47 -51 -105 -115 -130 -141
-25 -26 -81 -87 -125 -136 -300 -329 -355 -362 -381 -233 -9 46 -11 1629 -2
1629 4 0 3 11 -2 24 -5 13 -7 26 -4 29 3 2 7 71 10 153 6 192 15 311 29 374 4
18 8 41 10 53 10 68 59 172 94 196 36 25 102 54 186 80 39 13 77 25 85 28 8 3
44 16 78 29 133 48 211 115 217 186 7 81 -43 166 -130 221 -39 26 -169 76
-209 82 -12 2 -32 6 -46 9 -28 7 -92 17 -132 21 -14 2 -50 6 -80 10 -29 5 -82
10 -118 12 -88 5 -759 11 -763 6z"/>
</g>
</svg>
