<svg style="position: absolute; width: 0; height: 0; overflow: hidden;" version="1.1" xmlns="http://www.w3.org/2000/svg">
<defs>
<symbol id="icon-icon" viewBox="0 0 32 32">
<title>icon</title>
<path d="M9.6 27.45v-1.77l19.36-19.68h-2.42l-16.94 17.22v-1.77l15.2-15.45h-2.43l-6.43 6.54-6.44-6.54h-2.41l7.64 7.77-0.86 0.88-8.52-8.65h-2.43l9.73 9.89-0.87 0.88-9.78-9.95v23.18h1.71v-18.97l1.23 1.25v17.72h1.71v-15.98l1.23 1.25v14.73h1.72l6.34-6.54 6.43 6.54h1.75v-14.85l1.23-1.25v16.1h1.71v-17.85l1.23-1.24v19.090h1.71v-23.29l-20.4 20.74zM9.6 17.010l0.97 0.99-0.97 0.99v-1.98zM22.4 27.57l-5.25-5.34 0.87-0.88 4.38 4.45v1.77zM22.4 23.34l-3.17-3.23 0.87-0.88 2.3 2.34v1.77zM22.4 19.11l-1.080-1.11 1.080-1.11v2.22z"></path>
</symbol>
</defs>
</svg>
